<svg width="400" height="400" viewBox="0 0 400 400" xmlns="http://www.w3.org/2000/svg">
  <!-- Background -->
  <defs>
    <linearGradient id="bgGradient" x1="0%" y1="0%" x2="100%" y2="100%">
      <stop offset="0%" style="stop-color:#667eea;stop-opacity:1" />
      <stop offset="100%" style="stop-color:#764ba2;stop-opacity:1" />
    </linearGradient>
  </defs>
  
  <!-- Background circle -->
  <circle cx="200" cy="200" r="200" fill="url(#bgGradient)"/>
  
  <!-- Head shape -->
  <ellipse cx="200" cy="180" rx="80" ry="100" fill="#f4a460"/>
  
  <!-- Hair -->
  <ellipse cx="200" cy="120" rx="75" ry="40" fill="#2f1810"/>
  <ellipse cx="200" cy="110" rx="70" ry="35" fill="#2f1810"/>
  
  <!-- Eyes -->
  <ellipse cx="170" cy="160" rx="12" ry="8" fill="white"/>
  <ellipse cx="230" cy="160" rx="12" ry="8" fill="white"/>
  <ellipse cx="170" cy="160" rx="6" ry="6" fill="#2f1810"/>
  <ellipse cx="230" cy="160" rx="6" ry="6" fill="#2f1810"/>
  
  <!-- Glasses frames -->
  <ellipse cx="170" cy="160" rx="18" ry="14" fill="none" stroke="#87ceeb" stroke-width="3"/>
  <ellipse cx="230" cy="160" rx="18" ry="14" fill="none" stroke="#87ceeb" stroke-width="3"/>
  <line x1="188" y1="160" x2="212" y2="160" stroke="#87ceeb" stroke-width="3"/>
  
  <!-- Nose -->
  <ellipse cx="200" cy="180" rx="4" ry="8" fill="#d2691e"/>
  
  <!-- Mouth -->
  <ellipse cx="200" cy="200" rx="15" ry="8" fill="#8b4513"/>
  
  <!-- Mustache -->
  <ellipse cx="200" cy="195" rx="20" ry="6" fill="#2f1810"/>
  
  <!-- Beard -->
  <ellipse cx="200" cy="210" rx="25" ry="15" fill="#2f1810"/>
  
  <!-- Shirt collar -->
  <ellipse cx="200" cy="280" rx="60" ry="40" fill="#f0e68c"/>
  
  <!-- Shirt -->
  <rect x="140" y="280" width="120" height="80" fill="#f0e68c"/>
  
  <!-- Professional styling -->
  <circle cx="200" cy="200" r="195" fill="none" stroke="rgba(255,255,255,0.1)" stroke-width="2"/>
</svg> 